<?xml version="1.0" encoding="UTF-8" standalone="no"?>
<!DOCTYPE svg PUBLIC "-//W3C//DTD SVG 1.1//EN"
 "http://www.w3.org/Graphics/SVG/1.1/DTD/svg11.dtd">
<!-- Generated by graphviz version 2.40.1 (20161225.0304)
 -->
<!-- Title: Citations Pages: 1 -->
<svg width="1440pt" height="314pt"
 viewBox="0.00 0.00 1440.00 313.73" xmlns="http://www.w3.org/2000/svg" xmlns:xlink="http://www.w3.org/1999/xlink">
<g id="graph0" class="graph" transform="scale(.83 .83) rotate(0) translate(4 374)">
<title>Citations</title>
<polygon fill="#ffffff" stroke="transparent" points="-4,4 -4,-374 1731,-374 1731,4 -4,4"/>
<!-- Shi 2019 ToAC -->
<g id="node1" class="node">
<title>Shi 2019 ToAC</title>
<path fill="none" stroke="#000000" d="M115.5,-36C115.5,-36 35.5,-36 35.5,-36 29.5,-36 23.5,-30 23.5,-24 23.5,-24 23.5,-12 23.5,-12 23.5,-6 29.5,0 35.5,0 35.5,0 115.5,0 115.5,0 121.5,0 127.5,-6 127.5,-12 127.5,-12 127.5,-24 127.5,-24 127.5,-30 121.5,-36 115.5,-36"/>
<text text-anchor="middle" x="75.5" y="-14.3" font-family="Times,serif" font-size="14.00" fill="#000000">Shi 2019 ToAC</text>
</g>
<!-- Almassalkhi 2015 ToPS -->
<g id="node2" class="node">
<title>Almassalkhi 2015 ToPS</title>
<path fill="none" stroke="#000000" d="M139,-123C139,-123 12,-123 12,-123 6,-123 0,-117 0,-111 0,-111 0,-99 0,-99 0,-93 6,-87 12,-87 12,-87 139,-87 139,-87 145,-87 151,-93 151,-99 151,-99 151,-111 151,-111 151,-117 145,-123 139,-123"/>
<text text-anchor="middle" x="75.5" y="-101.3" font-family="Times,serif" font-size="14.00" fill="#000000">Almassalkhi 2015 ToPS</text>
</g>
<!-- Shi 2019 ToAC&#45;&gt;Almassalkhi 2015 ToPS -->
<g id="edge1" class="edge">
<title>Shi 2019 ToAC&#45;&gt;Almassalkhi 2015 ToPS</title>
<path fill="none" stroke="#000000" d="M75.5,-36.0265C75.5,-47.8082 75.5,-63.4393 75.5,-76.8419"/>
<polygon fill="#000000" stroke="#000000" points="72.0001,-76.9966 75.5,-86.9966 79.0001,-76.9967 72.0001,-76.9966"/>
</g>
<!-- Mégel 2015 PTech -->
<g id="node3" class="node">
<title>Mégel 2015 PTech</title>
<path fill="none" stroke="#000000" d="M276,-123C276,-123 181,-123 181,-123 175,-123 169,-117 169,-111 169,-111 169,-99 169,-99 169,-93 175,-87 181,-87 181,-87 276,-87 276,-87 282,-87 288,-93 288,-99 288,-99 288,-111 288,-111 288,-117 282,-123 276,-123"/>
<text text-anchor="middle" x="228.5" y="-101.3" font-family="Times,serif" font-size="14.00" fill="#000000">Mégel 2015 PTech</text>
</g>
<!-- Gill 2014 ToPS -->
<g id="node4" class="node">
<title>Gill 2014 ToPS</title>
<path fill="none" stroke="#000000" d="M879.5,-36C879.5,-36 801.5,-36 801.5,-36 795.5,-36 789.5,-30 789.5,-24 789.5,-24 789.5,-12 789.5,-12 789.5,-6 795.5,0 801.5,0 801.5,0 879.5,0 879.5,0 885.5,0 891.5,-6 891.5,-12 891.5,-12 891.5,-24 891.5,-24 891.5,-30 885.5,-36 879.5,-36"/>
<text text-anchor="middle" x="840.5" y="-14.3" font-family="Times,serif" font-size="14.00" fill="#000000">Gill 2014 ToPS</text>
</g>
<!-- Lamadrid 2011 ISPAW -->
<g id="node5" class="node">
<title>Lamadrid 2011 ISPAW</title>
<path fill="none" stroke="#000000" d="M851.5,-123C851.5,-123 727.5,-123 727.5,-123 721.5,-123 715.5,-117 715.5,-111 715.5,-111 715.5,-99 715.5,-99 715.5,-93 721.5,-87 727.5,-87 727.5,-87 851.5,-87 851.5,-87 857.5,-87 863.5,-93 863.5,-99 863.5,-99 863.5,-111 863.5,-111 863.5,-117 857.5,-123 851.5,-123"/>
<text text-anchor="middle" x="789.5" y="-101.3" font-family="Times,serif" font-size="14.00" fill="#000000">Lamadrid 2011 ISPAW</text>
</g>
<!-- Gill 2014 ToPS&#45;&gt;Lamadrid 2011 ISPAW -->
<g id="edge2" class="edge">
<title>Gill 2014 ToPS&#45;&gt;Lamadrid 2011 ISPAW</title>
<path fill="none" stroke="#000000" d="M829.9328,-36.0265C822.8211,-48.1582 813.3168,-64.3713 805.3099,-78.0302"/>
<polygon fill="#000000" stroke="#000000" points="802.0915,-76.5996 800.0537,-86.9966 808.1304,-80.1397 802.0915,-76.5996"/>
</g>
<!-- Gabash 2012 ToPS -->
<g id="node6" class="node">
<title>Gabash 2012 ToPS</title>
<path fill="none" stroke="#000000" d="M991.5,-123C991.5,-123 893.5,-123 893.5,-123 887.5,-123 881.5,-117 881.5,-111 881.5,-111 881.5,-99 881.5,-99 881.5,-93 887.5,-87 893.5,-87 893.5,-87 991.5,-87 991.5,-87 997.5,-87 1003.5,-93 1003.5,-99 1003.5,-99 1003.5,-111 1003.5,-111 1003.5,-117 997.5,-123 991.5,-123"/>
<text text-anchor="middle" x="942.5" y="-101.3" font-family="Times,serif" font-size="14.00" fill="#000000">Gabash 2012 ToPS</text>
</g>
<!-- Gill 2014 ToPS&#45;&gt;Gabash 2012 ToPS -->
<g id="edge3" class="edge">
<title>Gill 2014 ToPS&#45;&gt;Gabash 2012 ToPS</title>
<path fill="none" stroke="#000000" d="M861.6345,-36.0265C876.6784,-48.8581 897.0756,-66.2557 913.6204,-80.3674"/>
<polygon fill="#000000" stroke="#000000" points="911.5129,-83.1701 921.3926,-86.9966 916.0556,-77.8442 911.5129,-83.1701"/>
</g>
<!-- Nick 2014 ToPS -->
<g id="node7" class="node">
<title>Nick 2014 ToPS</title>
<path fill="none" stroke="#000000" d="M1056,-36C1056,-36 973,-36 973,-36 967,-36 961,-30 961,-24 961,-24 961,-12 961,-12 961,-6 967,0 973,0 973,0 1056,0 1056,0 1062,0 1068,-6 1068,-12 1068,-12 1068,-24 1068,-24 1068,-30 1062,-36 1056,-36"/>
<text text-anchor="middle" x="1014.5" y="-14.3" font-family="Times,serif" font-size="14.00" fill="#000000">Nick 2014 ToPS</text>
</g>
<!-- Chen 2020 ToSG -->
<g id="node8" class="node">
<title>Chen 2020 ToSG</title>
<path fill="none" stroke="#000000" d="M1288,-36C1288,-36 1199,-36 1199,-36 1193,-36 1187,-30 1187,-24 1187,-24 1187,-12 1187,-12 1187,-6 1193,0 1199,0 1199,0 1288,0 1288,0 1294,0 1300,-6 1300,-12 1300,-12 1300,-24 1300,-24 1300,-30 1294,-36 1288,-36"/>
<text text-anchor="middle" x="1243.5" y="-14.3" font-family="Times,serif" font-size="14.00" fill="#000000">Chen 2020 ToSG</text>
</g>
<!-- Zarrilli 2018 ToCST -->
<g id="node9" class="node">
<title>Zarrilli 2018 ToCST</title>
<path fill="none" stroke="#000000" d="M1141,-123C1141,-123 1034,-123 1034,-123 1028,-123 1022,-117 1022,-111 1022,-111 1022,-99 1022,-99 1022,-93 1028,-87 1034,-87 1034,-87 1141,-87 1141,-87 1147,-87 1153,-93 1153,-99 1153,-99 1153,-111 1153,-111 1153,-117 1147,-123 1141,-123"/>
<text text-anchor="middle" x="1087.5" y="-101.3" font-family="Times,serif" font-size="14.00" fill="#000000">Zarrilli 2018 ToCST</text>
</g>
<!-- Chen 2020 ToSG&#45;&gt;Zarrilli 2018 ToCST -->
<g id="edge4" class="edge">
<title>Chen 2020 ToSG&#45;&gt;Zarrilli 2018 ToCST</title>
<path fill="none" stroke="#000000" d="M1211.1767,-36.0265C1187.227,-49.383 1154.4065,-67.6867 1128.5939,-82.0823"/>
<polygon fill="#000000" stroke="#000000" points="1126.8108,-79.0691 1119.7819,-86.9966 1130.2203,-85.1827 1126.8108,-79.0691"/>
</g>
<!-- Mahmoodi 2015 ToSG -->
<g id="node10" class="node">
<title>Mahmoodi 2015 ToSG</title>
<path fill="none" stroke="#000000" d="M1303.5,-123C1303.5,-123 1183.5,-123 1183.5,-123 1177.5,-123 1171.5,-117 1171.5,-111 1171.5,-111 1171.5,-99 1171.5,-99 1171.5,-93 1177.5,-87 1183.5,-87 1183.5,-87 1303.5,-87 1303.5,-87 1309.5,-87 1315.5,-93 1315.5,-99 1315.5,-99 1315.5,-111 1315.5,-111 1315.5,-117 1309.5,-123 1303.5,-123"/>
<text text-anchor="middle" x="1243.5" y="-101.3" font-family="Times,serif" font-size="14.00" fill="#000000">Mahmoodi 2015 ToSG</text>
</g>
<!-- Chen 2020 ToSG&#45;&gt;Mahmoodi 2015 ToSG -->
<g id="edge5" class="edge">
<title>Chen 2020 ToSG&#45;&gt;Mahmoodi 2015 ToSG</title>
<path fill="none" stroke="#000000" d="M1243.5,-36.0265C1243.5,-47.8082 1243.5,-63.4393 1243.5,-76.8419"/>
<polygon fill="#000000" stroke="#000000" points="1240.0001,-76.9966 1243.5,-86.9966 1247.0001,-76.9967 1240.0001,-76.9966"/>
</g>
<!-- Li 2011 PESGM -->
<g id="node11" class="node">
<title>Li 2011 PESGM</title>
<path fill="none" stroke="#000000" d="M1429,-123C1429,-123 1346,-123 1346,-123 1340,-123 1334,-117 1334,-111 1334,-111 1334,-99 1334,-99 1334,-93 1340,-87 1346,-87 1346,-87 1429,-87 1429,-87 1435,-87 1441,-93 1441,-99 1441,-99 1441,-111 1441,-111 1441,-117 1435,-123 1429,-123"/>
<text text-anchor="middle" x="1387.5" y="-101.3" font-family="Times,serif" font-size="14.00" fill="#000000">Li 2011 PESGM</text>
</g>
<!-- Chen 2020 ToSG&#45;&gt;Li 2011 PESGM -->
<g id="edge6" class="edge">
<title>Chen 2020 ToSG&#45;&gt;Li 2011 PESGM</title>
<path fill="none" stroke="#000000" d="M1273.3369,-36.0265C1295.2512,-49.2664 1325.2116,-67.3674 1348.9414,-81.7042"/>
<polygon fill="#000000" stroke="#000000" points="1347.3322,-84.8211 1357.7013,-86.9966 1350.9521,-78.8297 1347.3322,-84.8211"/>
</g>
<!-- Li Z. 2016 ToPS -->
<g id="node12" class="node">
<title>Li Z. 2016 ToPS</title>
<path fill="none" stroke="#000000" d="M589,-297C589,-297 506,-297 506,-297 500,-297 494,-291 494,-285 494,-285 494,-273 494,-273 494,-267 500,-261 506,-261 506,-261 589,-261 589,-261 595,-261 601,-267 601,-273 601,-273 601,-285 601,-285 601,-291 595,-297 589,-297"/>
<text text-anchor="middle" x="547.5" y="-275.3" font-family="Times,serif" font-size="14.00" fill="#000000">Li Z. 2016 ToPS</text>
</g>
<!-- Yang P. 2014 ToSG -->
<g id="node13" class="node">
<title>Yang P. 2014 ToSG</title>
<path fill="none" stroke="#000000" d="M911,-370C911,-370 810,-370 810,-370 804,-370 798,-364 798,-358 798,-358 798,-346 798,-346 798,-340 804,-334 810,-334 810,-334 911,-334 911,-334 917,-334 923,-340 923,-346 923,-346 923,-358 923,-358 923,-364 917,-370 911,-370"/>
<text text-anchor="middle" x="860.5" y="-348.3" font-family="Times,serif" font-size="14.00" fill="#000000">Yang P. 2014 ToSG</text>
</g>
<!-- Li Z. 2016 ToPS&#45;&gt;Yang P. 2014 ToSG -->
<g id="edge7" class="edge">
<title>Li Z. 2016 ToPS&#45;&gt;Yang P. 2014 ToSG</title>
<path fill="none" stroke="#000000" d="M601.3334,-292.587C607.4561,-294.094 613.6102,-295.5919 619.5,-297 675.906,-310.4856 739.9175,-325.0599 787.7868,-335.8155"/>
<polygon fill="#000000" stroke="#000000" points="787.2243,-339.2763 797.748,-338.0509 788.7571,-332.4461 787.2243,-339.2763"/>
</g>
<!-- Shao C. 2014 ToSG -->
<g id="node14" class="node">
<title>Shao C. 2014 ToSG</title>
<path fill="none" stroke="#000000" d="M598.5,-370C598.5,-370 496.5,-370 496.5,-370 490.5,-370 484.5,-364 484.5,-358 484.5,-358 484.5,-346 484.5,-346 484.5,-340 490.5,-334 496.5,-334 496.5,-334 598.5,-334 598.5,-334 604.5,-334 610.5,-340 610.5,-346 610.5,-346 610.5,-358 610.5,-358 610.5,-364 604.5,-370 598.5,-370"/>
<text text-anchor="middle" x="547.5" y="-348.3" font-family="Times,serif" font-size="14.00" fill="#000000">Shao C. 2014 ToSG</text>
</g>
<!-- Li Z. 2016 ToPS&#45;&gt;Shao C. 2014 ToSG -->
<g id="edge8" class="edge">
<title>Li Z. 2016 ToPS&#45;&gt;Shao C. 2014 ToSG</title>
<path fill="none" stroke="#000000" d="M547.5,-297.0449C547.5,-305.1172 547.5,-314.8236 547.5,-323.8183"/>
<polygon fill="#000000" stroke="#000000" points="544.0001,-323.9096 547.5,-333.9096 551.0001,-323.9097 544.0001,-323.9096"/>
</g>
<!-- Mégel 2017 ToPS -->
<g id="node15" class="node">
<title>Mégel 2017 ToPS</title>
<path fill="none" stroke="#000000" d="M388.5,-36C388.5,-36 298.5,-36 298.5,-36 292.5,-36 286.5,-30 286.5,-24 286.5,-24 286.5,-12 286.5,-12 286.5,-6 292.5,0 298.5,0 298.5,0 388.5,0 388.5,0 394.5,0 400.5,-6 400.5,-12 400.5,-12 400.5,-24 400.5,-24 400.5,-30 394.5,-36 388.5,-36"/>
<text text-anchor="middle" x="343.5" y="-14.3" font-family="Times,serif" font-size="14.00" fill="#000000">Mégel 2017 ToPS</text>
</g>
<!-- Mégel 2017 ToPS&#45;&gt;Mégel 2015 PTech -->
<g id="edge12" class="edge">
<title>Mégel 2017 ToPS&#45;&gt;Mégel 2015 PTech</title>
<path fill="none" stroke="#000000" stroke-dasharray="1,5" d="M286.4605,-32.4431C273.8415,-37.6628 261.3208,-44.6648 251.5,-54 244.8209,-60.3489 239.9334,-68.9967 236.4269,-77.3674"/>
<polygon fill="#000000" stroke="#000000" points="233.0835,-76.3187 232.9204,-86.9123 239.6542,-78.7326 233.0835,-76.3187"/>
<text text-anchor="middle" x="277" y="-57.8" font-family="Times,serif" font-size="14.00" fill="#000000">builds on</text>
</g>
<!-- Mégel 2017 ToPS&#45;&gt;Li Z. 2016 ToPS -->
<g id="edge9" class="edge">
<title>Mégel 2017 ToPS&#45;&gt;Li Z. 2016 ToPS</title>
<path fill="none" stroke="#000000" d="M335.9495,-36.2589C322.0514,-73.0816 297.1759,-157.2237 335.5,-210 353.2538,-234.4489 428.2035,-254.7403 483.982,-266.8519"/>
<polygon fill="#000000" stroke="#000000" points="483.2955,-270.2841 493.8052,-268.9441 484.7537,-263.4376 483.2955,-270.2841"/>
</g>
<!-- Li Z. 2015 TRep -->
<g id="node16" class="node">
<title>Li Z. 2015 TRep</title>
<path fill="none" stroke="#000000" d="M562,-210C562,-210 479,-210 479,-210 473,-210 467,-204 467,-198 467,-198 467,-186 467,-186 467,-180 473,-174 479,-174 479,-174 562,-174 562,-174 568,-174 574,-180 574,-186 574,-186 574,-198 574,-198 574,-204 568,-210 562,-210"/>
<text text-anchor="middle" x="520.5" y="-188.3" font-family="Times,serif" font-size="14.00" fill="#000000">Li Z. 2015 TRep</text>
</g>
<!-- Mégel 2017 ToPS&#45;&gt;Li Z. 2015 TRep -->
<g id="edge10" class="edge">
<title>Mégel 2017 ToPS&#45;&gt;Li Z. 2015 TRep</title>
<path fill="none" stroke="#000000" d="M387.6765,-36.126C412.2511,-47.869 442.1008,-65.0702 463.5,-87 485.2042,-109.2424 501.0276,-141.4157 510.4192,-164.2766"/>
<polygon fill="#000000" stroke="#000000" points="507.2334,-165.7382 514.1643,-173.7515 513.7433,-163.165 507.2334,-165.7382"/>
</g>
<!-- Duan 2016 TRep -->
<g id="node17" class="node">
<title>Duan 2016 TRep</title>
<path fill="none" stroke="#000000" d="M442.5,-123C442.5,-123 356.5,-123 356.5,-123 350.5,-123 344.5,-117 344.5,-111 344.5,-111 344.5,-99 344.5,-99 344.5,-93 350.5,-87 356.5,-87 356.5,-87 442.5,-87 442.5,-87 448.5,-87 454.5,-93 454.5,-99 454.5,-99 454.5,-111 454.5,-111 454.5,-117 448.5,-123 442.5,-123"/>
<text text-anchor="middle" x="399.5" y="-101.3" font-family="Times,serif" font-size="14.00" fill="#000000">Duan 2016 TRep</text>
</g>
<!-- Mégel 2017 ToPS&#45;&gt;Duan 2016 TRep -->
<g id="edge11" class="edge">
<title>Mégel 2017 ToPS&#45;&gt;Duan 2016 TRep</title>
<path fill="none" stroke="#000000" d="M355.1032,-36.0265C362.9872,-48.2748 373.5491,-64.6835 382.3933,-78.4234"/>
<polygon fill="#000000" stroke="#000000" points="379.5561,-80.4824 387.9116,-86.9966 385.4422,-76.6936 379.5561,-80.4824"/>
</g>
<!-- Li Z. 2015 TRep&#45;&gt;Li Z. 2016 ToPS -->
<g id="edge15" class="edge">
<title>Li Z. 2015 TRep&#45;&gt;Li Z. 2016 ToPS</title>
<path fill="none" stroke="#000000" d="M526.0944,-210.0265C529.787,-221.9249 534.698,-237.7492 538.8846,-251.2394"/>
<polygon fill="#000000" stroke="#000000" points="535.606,-252.4834 541.9127,-260.9966 542.2914,-250.4086 535.606,-252.4834"/>
<text text-anchor="middle" x="558" y="-231.8" font-family="Times,serif" font-size="14.00" fill="#000000">extends</text>
</g>
<!-- Duan 2016 TRep&#45;&gt;Li Z. 2015 TRep -->
<g id="edge13" class="edge">
<title>Duan 2016 TRep&#45;&gt;Li Z. 2015 TRep</title>
<path fill="none" stroke="#000000" d="M424.5713,-123.0265C442.742,-136.0914 467.4962,-153.8898 487.3068,-168.1338"/>
<polygon fill="#000000" stroke="#000000" points="485.2984,-171.0006 495.4608,-173.9966 489.3849,-165.3171 485.2984,-171.0006"/>
</g>
<!-- Jabr 2014 ToPS -->
<g id="node18" class="node">
<title>Jabr 2014 ToPS</title>
<path fill="none" stroke="#000000" d="M436.5,-210C436.5,-210 356.5,-210 356.5,-210 350.5,-210 344.5,-204 344.5,-198 344.5,-198 344.5,-186 344.5,-186 344.5,-180 350.5,-174 356.5,-174 356.5,-174 436.5,-174 436.5,-174 442.5,-174 448.5,-180 448.5,-186 448.5,-186 448.5,-198 448.5,-198 448.5,-204 442.5,-210 436.5,-210"/>
<text text-anchor="middle" x="396.5" y="-188.3" font-family="Times,serif" font-size="14.00" fill="#000000">Jabr 2014 ToPS</text>
</g>
<!-- Duan 2016 TRep&#45;&gt;Jabr 2014 ToPS -->
<g id="edge14" class="edge">
<title>Duan 2016 TRep&#45;&gt;Jabr 2014 ToPS</title>
<path fill="none" stroke="#000000" d="M398.8784,-123.0265C398.4721,-134.8082 397.9331,-150.4393 397.471,-163.8419"/>
<polygon fill="#000000" stroke="#000000" points="393.9676,-163.8819 397.1208,-173.9966 400.9634,-164.1232 393.9676,-163.8819"/>
</g>
<!-- Li Z. 2015 AE -->
<g id="node19" class="node">
<title>Li Z. 2015 AE</title>
<path fill="none" stroke="#000000" d="M676.5,-210C676.5,-210 604.5,-210 604.5,-210 598.5,-210 592.5,-204 592.5,-198 592.5,-198 592.5,-186 592.5,-186 592.5,-180 598.5,-174 604.5,-174 604.5,-174 676.5,-174 676.5,-174 682.5,-174 688.5,-180 688.5,-186 688.5,-186 688.5,-198 688.5,-198 688.5,-204 682.5,-210 676.5,-210"/>
<text text-anchor="middle" x="640.5" y="-188.3" font-family="Times,serif" font-size="14.00" fill="#000000">Li Z. 2015 AE</text>
</g>
<!-- Li Z. 2015 AE&#45;&gt;Li Z. 2016 ToPS -->
<g id="edge16" class="edge">
<title>Li Z. 2015 AE&#45;&gt;Li Z. 2016 ToPS</title>
<path fill="none" stroke="#000000" d="M621.2303,-210.0265C607.6385,-222.7414 589.2541,-239.9397 574.2437,-253.9817"/>
<polygon fill="#000000" stroke="#000000" points="571.6567,-251.6091 566.745,-260.9966 576.4388,-256.721 571.6567,-251.6091"/>
</g>
<!-- Li Z. 2018 CJPES -->
<g id="node20" class="node">
<title>Li Z. 2018 CJPES</title>
<path fill="none" stroke="#000000" d="M685.5,-123C685.5,-123 595.5,-123 595.5,-123 589.5,-123 583.5,-117 583.5,-111 583.5,-111 583.5,-99 583.5,-99 583.5,-93 589.5,-87 595.5,-87 595.5,-87 685.5,-87 685.5,-87 691.5,-87 697.5,-93 697.5,-99 697.5,-99 697.5,-111 697.5,-111 697.5,-117 691.5,-123 685.5,-123"/>
<text text-anchor="middle" x="640.5" y="-101.3" font-family="Times,serif" font-size="14.00" fill="#000000">Li Z. 2018 CJPES</text>
</g>
<!-- Li Z. 2018 CJPES&#45;&gt;Li Z. 2016 ToPS -->
<g id="edge17" class="edge">
<title>Li Z. 2018 CJPES&#45;&gt;Li Z. 2016 ToPS</title>
<path fill="none" stroke="#000000" d="M662.7397,-123.2907C685.8767,-144.6086 716.2993,-180.6594 697.5,-210 687.2081,-226.0629 647.0675,-244.0757 610.8997,-257.6683"/>
<polygon fill="#000000" stroke="#000000" points="609.4932,-254.4566 601.323,-261.2018 611.9163,-261.0238 609.4932,-254.4566"/>
</g>
<!-- Li Z. 2018 CJPES&#45;&gt;Li Z. 2015 TRep -->
<g id="edge19" class="edge">
<title>Li Z. 2018 CJPES&#45;&gt;Li Z. 2015 TRep</title>
<path fill="none" stroke="#000000" stroke-dasharray="1,5" d="M615.6359,-123.0265C597.6958,-136.0331 573.2849,-153.731 553.6823,-167.9429"/>
<polygon fill="#000000" stroke="#000000" points="551.3739,-165.2933 545.3322,-173.9966 555.4827,-170.9606 551.3739,-165.2933"/>
<text text-anchor="middle" x="608.5" y="-144.8" font-family="Times,serif" font-size="14.00" fill="#000000">similar</text>
</g>
<!-- Li Z. 2018 CJPES&#45;&gt;Li Z. 2015 AE -->
<g id="edge18" class="edge">
<title>Li Z. 2018 CJPES&#45;&gt;Li Z. 2015 AE</title>
<path fill="none" stroke="#000000" d="M640.5,-123.0265C640.5,-134.8082 640.5,-150.4393 640.5,-163.8419"/>
<polygon fill="#000000" stroke="#000000" points="637.0001,-163.9966 640.5,-173.9966 644.0001,-163.9967 637.0001,-163.9966"/>
</g>
<!-- Arroyo 2020 ToPS -->
<g id="node21" class="node">
<title>Arroyo 2020 ToPS</title>
<path fill="none" stroke="#000000" d="M867.5,-210C867.5,-210 769.5,-210 769.5,-210 763.5,-210 757.5,-204 757.5,-198 757.5,-198 757.5,-186 757.5,-186 757.5,-180 763.5,-174 769.5,-174 769.5,-174 867.5,-174 867.5,-174 873.5,-174 879.5,-180 879.5,-186 879.5,-186 879.5,-198 879.5,-198 879.5,-204 873.5,-210 867.5,-210"/>
<text text-anchor="middle" x="818.5" y="-188.3" font-family="Times,serif" font-size="14.00" fill="#000000">Arroyo 2020 ToPS</text>
</g>
<!-- Arroyo 2020 ToPS&#45;&gt;Li Z. 2016 ToPS -->
<g id="edge20" class="edge">
<title>Arroyo 2020 ToPS&#45;&gt;Li Z. 2016 ToPS</title>
<path fill="none" stroke="#000000" d="M786.7593,-210.1289C761.8058,-224.3265 730.725,-241.8665 727.5,-243 681.591,-259.1357 667.1425,-251.091 619.5,-261 616.7208,-261.578 613.8867,-262.1899 611.0278,-262.8255"/>
<polygon fill="#000000" stroke="#000000" points="610.2218,-259.4194 601.2552,-265.0631 611.7842,-266.2428 610.2218,-259.4194"/>
</g>
<!-- Arroyo 2020 ToPS&#45;&gt;Yang P. 2014 ToSG -->
<g id="edge21" class="edge">
<title>Arroyo 2020 ToPS&#45;&gt;Yang P. 2014 ToSG</title>
<path fill="none" stroke="#000000" d="M852.9827,-210.0155C871.4769,-221.7706 892.4769,-239.0206 902.5,-261 909.1387,-275.5577 907.6254,-281.8431 902.5,-297 898.9418,-307.5223 892.4758,-317.6179 885.6663,-326.2225"/>
<polygon fill="#000000" stroke="#000000" points="882.8929,-324.082 879.1161,-333.9808 888.2416,-328.5978 882.8929,-324.082"/>
</g>
<!-- Wen Y. 2016 ToPS -->
<g id="node22" class="node">
<title>Wen Y. 2016 ToPS</title>
<path fill="none" stroke="#000000" d="M738.5,-297C738.5,-297 640.5,-297 640.5,-297 634.5,-297 628.5,-291 628.5,-285 628.5,-285 628.5,-273 628.5,-273 628.5,-267 634.5,-261 640.5,-261 640.5,-261 738.5,-261 738.5,-261 744.5,-261 750.5,-267 750.5,-273 750.5,-273 750.5,-285 750.5,-285 750.5,-291 744.5,-297 738.5,-297"/>
<text text-anchor="middle" x="689.5" y="-275.3" font-family="Times,serif" font-size="14.00" fill="#000000">Wen Y. 2016 ToPS</text>
</g>
<!-- Arroyo 2020 ToPS&#45;&gt;Wen Y. 2016 ToPS -->
<g id="edge22" class="edge">
<title>Arroyo 2020 ToPS&#45;&gt;Wen Y. 2016 ToPS</title>
<path fill="none" stroke="#ff0000" d="M796.7656,-210.0219C784.1592,-220.1596 767.7965,-232.7909 752.5,-243 745.9431,-247.3762 738.8273,-251.764 731.8177,-255.8963"/>
<polygon fill="#ff0000" stroke="#ff0000" points="729.947,-252.935 723.0457,-260.9737 733.4538,-258.9933 729.947,-252.935"/>
<text text-anchor="middle" x="790.5" y="-231.8" font-family="Times,serif" font-size="14.00" fill="#000000">refute</text>
</g>
<!-- Zhao B. 2018 ToPS -->
<g id="node23" class="node">
<title>Zhao B. 2018 ToPS</title>
<path fill="none" stroke="#000000" d="M882,-297C882,-297 781,-297 781,-297 775,-297 769,-291 769,-285 769,-285 769,-273 769,-273 769,-267 775,-261 781,-261 781,-261 882,-261 882,-261 888,-261 894,-267 894,-273 894,-273 894,-285 894,-285 894,-291 888,-297 882,-297"/>
<text text-anchor="middle" x="831.5" y="-275.3" font-family="Times,serif" font-size="14.00" fill="#000000">Zhao B. 2018 ToPS</text>
</g>
<!-- Arroyo 2020 ToPS&#45;&gt;Zhao B. 2018 ToPS -->
<g id="edge23" class="edge">
<title>Arroyo 2020 ToPS&#45;&gt;Zhao B. 2018 ToPS</title>
<path fill="none" stroke="#ff0000" d="M821.1936,-210.0265C822.9541,-221.8082 825.2898,-237.4393 827.2925,-250.8419"/>
<polygon fill="#ff0000" stroke="#ff0000" points="823.8703,-251.6237 828.8098,-260.9966 830.7935,-250.5892 823.8703,-251.6237"/>
<text text-anchor="middle" x="843.5" y="-231.8" font-family="Times,serif" font-size="14.00" fill="#000000">refute</text>
</g>
<!-- Wang H. 2020 CSEE -->
<g id="node24" class="node">
<title>Wang H. 2020 CSEE</title>
<path fill="none" stroke="#000000" d="M132,-210C132,-210 25,-210 25,-210 19,-210 13,-204 13,-198 13,-198 13,-186 13,-186 13,-180 19,-174 25,-174 25,-174 132,-174 132,-174 138,-174 144,-180 144,-186 144,-186 144,-198 144,-198 144,-204 138,-210 132,-210"/>
<text text-anchor="middle" x="78.5" y="-188.3" font-family="Times,serif" font-size="14.00" fill="#000000">Wang H. 2020 CSEE</text>
</g>
<!-- Wang H. 2020 CSEE&#45;&gt;Li Z. 2016 ToPS -->
<g id="edge24" class="edge">
<title>Wang H. 2020 CSEE&#45;&gt;Li Z. 2016 ToPS</title>
<path fill="none" stroke="#000000" d="M137.8158,-210.0081C175.2867,-220.8421 224.8846,-234.1948 269.5,-243 342.3162,-257.3709 427.0361,-267.3957 483.6345,-273.1524"/>
<polygon fill="#000000" stroke="#000000" points="483.567,-276.6631 493.8661,-274.1777 484.265,-269.698 483.567,-276.6631"/>
</g>
<!-- Shen Z. 2020 CSEE -->
<g id="node25" class="node">
<title>Shen Z. 2020 CSEE</title>
<path fill="none" stroke="#000000" d="M276.5,-210C276.5,-210 174.5,-210 174.5,-210 168.5,-210 162.5,-204 162.5,-198 162.5,-198 162.5,-186 162.5,-186 162.5,-180 168.5,-174 174.5,-174 174.5,-174 276.5,-174 276.5,-174 282.5,-174 288.5,-180 288.5,-186 288.5,-186 288.5,-198 288.5,-198 288.5,-204 282.5,-210 276.5,-210"/>
<text text-anchor="middle" x="225.5" y="-188.3" font-family="Times,serif" font-size="14.00" fill="#000000">Shen Z. 2020 CSEE</text>
</g>
<!-- Shen Z. 2020 CSEE&#45;&gt;Li Z. 2016 ToPS -->
<g id="edge25" class="edge">
<title>Shen Z. 2020 CSEE&#45;&gt;Li Z. 2016 ToPS</title>
<path fill="none" stroke="#000000" d="M247.2953,-210.2257C261.9756,-221.5047 282.283,-235.2643 302.5,-243 334.6872,-255.3159 422.6507,-266.3253 483.9044,-272.8342"/>
<polygon fill="#000000" stroke="#000000" points="483.5615,-276.3174 493.8719,-273.8789 484.2912,-269.3555 483.5615,-276.3174"/>
</g>
<!-- Pinto 2016 ToSE -->
<g id="node26" class="node">
<title>Pinto 2016 ToSE</title>
<path fill="none" stroke="#000000" d="M1579,-36C1579,-36 1492,-36 1492,-36 1486,-36 1480,-30 1480,-24 1480,-24 1480,-12 1480,-12 1480,-6 1486,0 1492,0 1492,0 1579,0 1579,0 1585,0 1591,-6 1591,-12 1591,-12 1591,-24 1591,-24 1591,-30 1585,-36 1579,-36"/>
<text text-anchor="middle" x="1535.5" y="-14.3" font-family="Times,serif" font-size="14.00" fill="#000000">Pinto 2016 ToSE</text>
</g>
<!-- Murgovski 2012 ECoSM -->
<g id="node27" class="node">
<title>Murgovski 2012 ECoSM</title>
<path fill="none" stroke="#000000" d="M1599.5,-123C1599.5,-123 1471.5,-123 1471.5,-123 1465.5,-123 1459.5,-117 1459.5,-111 1459.5,-111 1459.5,-99 1459.5,-99 1459.5,-93 1465.5,-87 1471.5,-87 1471.5,-87 1599.5,-87 1599.5,-87 1605.5,-87 1611.5,-93 1611.5,-99 1611.5,-99 1611.5,-111 1611.5,-111 1611.5,-117 1605.5,-123 1599.5,-123"/>
<text text-anchor="middle" x="1535.5" y="-101.3" font-family="Times,serif" font-size="14.00" fill="#000000">Murgovski 2012 ECoSM</text>
</g>
<!-- Pinto 2016 ToSE&#45;&gt;Murgovski 2012 ECoSM -->
<g id="edge26" class="edge">
<title>Pinto 2016 ToSE&#45;&gt;Murgovski 2012 ECoSM</title>
<path fill="none" stroke="#000000" d="M1535.5,-36.0265C1535.5,-47.8082 1535.5,-63.4393 1535.5,-76.8419"/>
<polygon fill="#000000" stroke="#000000" points="1532.0001,-76.9966 1535.5,-86.9966 1539.0001,-76.9967 1532.0001,-76.9966"/>
</g>
<!-- Murgovski 2012 Mech -->
<g id="node28" class="node">
<title>Murgovski 2012 Mech</title>
<path fill="none" stroke="#000000" d="M1694.5,-210C1694.5,-210 1578.5,-210 1578.5,-210 1572.5,-210 1566.5,-204 1566.5,-198 1566.5,-198 1566.5,-186 1566.5,-186 1566.5,-180 1572.5,-174 1578.5,-174 1578.5,-174 1694.5,-174 1694.5,-174 1700.5,-174 1706.5,-180 1706.5,-186 1706.5,-186 1706.5,-198 1706.5,-198 1706.5,-204 1700.5,-210 1694.5,-210"/>
<text text-anchor="middle" x="1636.5" y="-188.3" font-family="Times,serif" font-size="14.00" fill="#000000">Murgovski 2012 Mech</text>
</g>
<!-- Murgovski 2012 ECoSM&#45;&gt;Murgovski 2012 Mech -->
<g id="edge27" class="edge">
<title>Murgovski 2012 ECoSM&#45;&gt;Murgovski 2012 Mech</title>
<path fill="none" stroke="#000000" d="M1556.4273,-123.0265C1571.3238,-135.8581 1591.5209,-153.2557 1607.9035,-167.3674"/>
<polygon fill="#000000" stroke="#000000" points="1605.7386,-170.122 1615.5995,-173.9966 1610.3071,-164.8183 1605.7386,-170.122"/>
</g>
<!-- Wu 2017 JoPS -->
<g id="node29" class="node">
<title>Wu 2017 JoPS</title>
<path fill="none" stroke="#000000" d="M1715,-123C1715,-123 1642,-123 1642,-123 1636,-123 1630,-117 1630,-111 1630,-111 1630,-99 1630,-99 1630,-93 1636,-87 1642,-87 1642,-87 1715,-87 1715,-87 1721,-87 1727,-93 1727,-99 1727,-99 1727,-111 1727,-111 1727,-117 1721,-123 1715,-123"/>
<text text-anchor="middle" x="1678.5" y="-101.3" font-family="Times,serif" font-size="14.00" fill="#000000">Wu 2017 JoPS</text>
</g>
<!-- Wu 2017 JoPS&#45;&gt;Murgovski 2012 Mech -->
<g id="edge28" class="edge">
<title>Wu 2017 JoPS&#45;&gt;Murgovski 2012 Mech</title>
<path fill="none" stroke="#000000" d="M1669.7976,-123.0265C1663.9972,-135.0415 1656.2642,-151.0599 1649.7105,-164.6354"/>
<polygon fill="#000000" stroke="#000000" points="1646.3869,-163.4695 1645.1913,-173.9966 1652.6908,-166.5128 1646.3869,-163.4695"/>
</g>
</g>
</svg>
