<?xml version="1.0" encoding="UTF-8" standalone="no"?>
<!DOCTYPE svg PUBLIC "-//W3C//DTD SVG 1.1//EN"
 "http://www.w3.org/Graphics/SVG/1.1/DTD/svg11.dtd">
<!-- Generated by graphviz version 2.40.1 (20161225.0304)
 -->
<!-- Title: Citations Pages: 1 -->
<svg width="1440pt" height="356pt"
 viewBox="0.00 0.00 1440.00 355.53" xmlns="http://www.w3.org/2000/svg" xmlns:xlink="http://www.w3.org/1999/xlink">
<g id="graph0" class="graph" transform="scale(.9406 .9406) rotate(0) translate(4 374)">
<title>Citations</title>
<polygon fill="#ffffff" stroke="transparent" points="-4,4 -4,-374 1527,-374 1527,4 -4,4"/>
<!-- Shi 2019 ToAC -->
<g id="node1" class="node">
<title>Shi 2019 ToAC</title>
<path fill="none" stroke="#000000" d="M115.5,-36C115.5,-36 35.5,-36 35.5,-36 29.5,-36 23.5,-30 23.5,-24 23.5,-24 23.5,-12 23.5,-12 23.5,-6 29.5,0 35.5,0 35.5,0 115.5,0 115.5,0 121.5,0 127.5,-6 127.5,-12 127.5,-12 127.5,-24 127.5,-24 127.5,-30 121.5,-36 115.5,-36"/>
<text text-anchor="middle" x="75.5" y="-14.3" font-family="Times,serif" font-size="14.00" fill="#000000">Shi 2019 ToAC</text>
</g>
<!-- Almassalkhi 2015 ToPS -->
<g id="node2" class="node">
<title>Almassalkhi 2015 ToPS</title>
<path fill="none" stroke="#000000" d="M139,-123C139,-123 12,-123 12,-123 6,-123 0,-117 0,-111 0,-111 0,-99 0,-99 0,-93 6,-87 12,-87 12,-87 139,-87 139,-87 145,-87 151,-93 151,-99 151,-99 151,-111 151,-111 151,-117 145,-123 139,-123"/>
<text text-anchor="middle" x="75.5" y="-101.3" font-family="Times,serif" font-size="14.00" fill="#000000">Almassalkhi 2015 ToPS</text>
</g>
<!-- Shi 2019 ToAC&#45;&gt;Almassalkhi 2015 ToPS -->
<g id="edge1" class="edge">
<title>Shi 2019 ToAC&#45;&gt;Almassalkhi 2015 ToPS</title>
<path fill="none" stroke="#000000" d="M75.5,-36.0265C75.5,-47.8082 75.5,-63.4393 75.5,-76.8419"/>
<polygon fill="#000000" stroke="#000000" points="72.0001,-76.9966 75.5,-86.9966 79.0001,-76.9967 72.0001,-76.9966"/>
</g>
<!-- Mégel 2015 PTech -->
<g id="node3" class="node">
<title>Mégel 2015 PTech</title>
<path fill="none" stroke="#000000" d="M276,-123C276,-123 181,-123 181,-123 175,-123 169,-117 169,-111 169,-111 169,-99 169,-99 169,-93 175,-87 181,-87 181,-87 276,-87 276,-87 282,-87 288,-93 288,-99 288,-99 288,-111 288,-111 288,-117 282,-123 276,-123"/>
<text text-anchor="middle" x="228.5" y="-101.3" font-family="Times,serif" font-size="14.00" fill="#000000">Mégel 2015 PTech</text>
</g>
<!-- Gill 2014 ToPS -->
<g id="node4" class="node">
<title>Gill 2014 ToPS</title>
<path fill="none" stroke="#000000" d="M777.5,-36C777.5,-36 699.5,-36 699.5,-36 693.5,-36 687.5,-30 687.5,-24 687.5,-24 687.5,-12 687.5,-12 687.5,-6 693.5,0 699.5,0 699.5,0 777.5,0 777.5,0 783.5,0 789.5,-6 789.5,-12 789.5,-12 789.5,-24 789.5,-24 789.5,-30 783.5,-36 777.5,-36"/>
<text text-anchor="middle" x="738.5" y="-14.3" font-family="Times,serif" font-size="14.00" fill="#000000">Gill 2014 ToPS</text>
</g>
<!-- Gabash 2012 ToPS -->
<g id="node5" class="node">
<title>Gabash 2012 ToPS</title>
<path fill="none" stroke="#000000" d="M787.5,-123C787.5,-123 689.5,-123 689.5,-123 683.5,-123 677.5,-117 677.5,-111 677.5,-111 677.5,-99 677.5,-99 677.5,-93 683.5,-87 689.5,-87 689.5,-87 787.5,-87 787.5,-87 793.5,-87 799.5,-93 799.5,-99 799.5,-99 799.5,-111 799.5,-111 799.5,-117 793.5,-123 787.5,-123"/>
<text text-anchor="middle" x="738.5" y="-101.3" font-family="Times,serif" font-size="14.00" fill="#000000">Gabash 2012 ToPS</text>
</g>
<!-- Gill 2014 ToPS&#45;&gt;Gabash 2012 ToPS -->
<g id="edge2" class="edge">
<title>Gill 2014 ToPS&#45;&gt;Gabash 2012 ToPS</title>
<path fill="none" stroke="#000000" d="M738.5,-36.0265C738.5,-47.8082 738.5,-63.4393 738.5,-76.8419"/>
<polygon fill="#000000" stroke="#000000" points="735.0001,-76.9966 738.5,-86.9966 742.0001,-76.9967 735.0001,-76.9966"/>
</g>
<!-- Nick 2014 ToPS -->
<g id="node6" class="node">
<title>Nick 2014 ToPS</title>
<path fill="none" stroke="#000000" d="M928,-36C928,-36 845,-36 845,-36 839,-36 833,-30 833,-24 833,-24 833,-12 833,-12 833,-6 839,0 845,0 845,0 928,0 928,0 934,0 940,-6 940,-12 940,-12 940,-24 940,-24 940,-30 934,-36 928,-36"/>
<text text-anchor="middle" x="886.5" y="-14.3" font-family="Times,serif" font-size="14.00" fill="#000000">Nick 2014 ToPS</text>
</g>
<!-- Chen 2020 ToSG -->
<g id="node7" class="node">
<title>Chen 2020 ToSG</title>
<path fill="none" stroke="#000000" d="M1084,-36C1084,-36 995,-36 995,-36 989,-36 983,-30 983,-24 983,-24 983,-12 983,-12 983,-6 989,0 995,0 995,0 1084,0 1084,0 1090,0 1096,-6 1096,-12 1096,-12 1096,-24 1096,-24 1096,-30 1090,-36 1084,-36"/>
<text text-anchor="middle" x="1039.5" y="-14.3" font-family="Times,serif" font-size="14.00" fill="#000000">Chen 2020 ToSG</text>
</g>
<!-- Zarrilli 2018 ToCST -->
<g id="node8" class="node">
<title>Zarrilli 2018 ToCST</title>
<path fill="none" stroke="#000000" d="M937,-123C937,-123 830,-123 830,-123 824,-123 818,-117 818,-111 818,-111 818,-99 818,-99 818,-93 824,-87 830,-87 830,-87 937,-87 937,-87 943,-87 949,-93 949,-99 949,-99 949,-111 949,-111 949,-117 943,-123 937,-123"/>
<text text-anchor="middle" x="883.5" y="-101.3" font-family="Times,serif" font-size="14.00" fill="#000000">Zarrilli 2018 ToCST</text>
</g>
<!-- Chen 2020 ToSG&#45;&gt;Zarrilli 2018 ToCST -->
<g id="edge3" class="edge">
<title>Chen 2020 ToSG&#45;&gt;Zarrilli 2018 ToCST</title>
<path fill="none" stroke="#000000" d="M1007.1767,-36.0265C983.227,-49.383 950.4065,-67.6867 924.5939,-82.0823"/>
<polygon fill="#000000" stroke="#000000" points="922.8108,-79.0691 915.7819,-86.9966 926.2203,-85.1827 922.8108,-79.0691"/>
</g>
<!-- Mahmoodi 2015 ToSG -->
<g id="node9" class="node">
<title>Mahmoodi 2015 ToSG</title>
<path fill="none" stroke="#000000" d="M1099.5,-123C1099.5,-123 979.5,-123 979.5,-123 973.5,-123 967.5,-117 967.5,-111 967.5,-111 967.5,-99 967.5,-99 967.5,-93 973.5,-87 979.5,-87 979.5,-87 1099.5,-87 1099.5,-87 1105.5,-87 1111.5,-93 1111.5,-99 1111.5,-99 1111.5,-111 1111.5,-111 1111.5,-117 1105.5,-123 1099.5,-123"/>
<text text-anchor="middle" x="1039.5" y="-101.3" font-family="Times,serif" font-size="14.00" fill="#000000">Mahmoodi 2015 ToSG</text>
</g>
<!-- Chen 2020 ToSG&#45;&gt;Mahmoodi 2015 ToSG -->
<g id="edge4" class="edge">
<title>Chen 2020 ToSG&#45;&gt;Mahmoodi 2015 ToSG</title>
<path fill="none" stroke="#000000" d="M1039.5,-36.0265C1039.5,-47.8082 1039.5,-63.4393 1039.5,-76.8419"/>
<polygon fill="#000000" stroke="#000000" points="1036.0001,-76.9966 1039.5,-86.9966 1043.0001,-76.9967 1036.0001,-76.9966"/>
</g>
<!-- Li 2011 PESGM -->
<g id="node10" class="node">
<title>Li 2011 PESGM</title>
<path fill="none" stroke="#000000" d="M1225,-123C1225,-123 1142,-123 1142,-123 1136,-123 1130,-117 1130,-111 1130,-111 1130,-99 1130,-99 1130,-93 1136,-87 1142,-87 1142,-87 1225,-87 1225,-87 1231,-87 1237,-93 1237,-99 1237,-99 1237,-111 1237,-111 1237,-117 1231,-123 1225,-123"/>
<text text-anchor="middle" x="1183.5" y="-101.3" font-family="Times,serif" font-size="14.00" fill="#000000">Li 2011 PESGM</text>
</g>
<!-- Chen 2020 ToSG&#45;&gt;Li 2011 PESGM -->
<g id="edge5" class="edge">
<title>Chen 2020 ToSG&#45;&gt;Li 2011 PESGM</title>
<path fill="none" stroke="#000000" d="M1069.3369,-36.0265C1091.2512,-49.2664 1121.2116,-67.3674 1144.9414,-81.7042"/>
<polygon fill="#000000" stroke="#000000" points="1143.3322,-84.8211 1153.7013,-86.9966 1146.9521,-78.8297 1143.3322,-84.8211"/>
</g>
<!-- Li Z. 2016 ToPS -->
<g id="node11" class="node">
<title>Li Z. 2016 ToPS</title>
<path fill="none" stroke="#000000" d="M644,-297C644,-297 561,-297 561,-297 555,-297 549,-291 549,-285 549,-285 549,-273 549,-273 549,-267 555,-261 561,-261 561,-261 644,-261 644,-261 650,-261 656,-267 656,-273 656,-273 656,-285 656,-285 656,-291 650,-297 644,-297"/>
<text text-anchor="middle" x="602.5" y="-275.3" font-family="Times,serif" font-size="14.00" fill="#000000">Li Z. 2016 ToPS</text>
</g>
<!-- Yang P. 2014 ToSG -->
<g id="node12" class="node">
<title>Yang P. 2014 ToSG</title>
<path fill="none" stroke="#000000" d="M767,-370C767,-370 666,-370 666,-370 660,-370 654,-364 654,-358 654,-358 654,-346 654,-346 654,-340 660,-334 666,-334 666,-334 767,-334 767,-334 773,-334 779,-340 779,-346 779,-346 779,-358 779,-358 779,-364 773,-370 767,-370"/>
<text text-anchor="middle" x="716.5" y="-348.3" font-family="Times,serif" font-size="14.00" fill="#000000">Yang P. 2014 ToSG</text>
</g>
<!-- Li Z. 2016 ToPS&#45;&gt;Yang P. 2014 ToSG -->
<g id="edge6" class="edge">
<title>Li Z. 2016 ToPS&#45;&gt;Yang P. 2014 ToSG</title>
<path fill="none" stroke="#000000" d="M630.6798,-297.0449C645.478,-306.521 663.7933,-318.2492 679.6986,-328.4342"/>
<polygon fill="#000000" stroke="#000000" points="677.9405,-331.4644 688.2493,-333.9096 681.7154,-325.5695 677.9405,-331.4644"/>
</g>
<!-- Shao C. 2014 ToSG -->
<g id="node13" class="node">
<title>Shao C. 2014 ToSG</title>
<path fill="none" stroke="#000000" d="M623.5,-370C623.5,-370 521.5,-370 521.5,-370 515.5,-370 509.5,-364 509.5,-358 509.5,-358 509.5,-346 509.5,-346 509.5,-340 515.5,-334 521.5,-334 521.5,-334 623.5,-334 623.5,-334 629.5,-334 635.5,-340 635.5,-346 635.5,-346 635.5,-358 635.5,-358 635.5,-364 629.5,-370 623.5,-370"/>
<text text-anchor="middle" x="572.5" y="-348.3" font-family="Times,serif" font-size="14.00" fill="#000000">Shao C. 2014 ToSG</text>
</g>
<!-- Li Z. 2016 ToPS&#45;&gt;Shao C. 2014 ToSG -->
<g id="edge7" class="edge">
<title>Li Z. 2016 ToPS&#45;&gt;Shao C. 2014 ToSG</title>
<path fill="none" stroke="#000000" d="M595.0843,-297.0449C591.6948,-305.2926 587.6042,-315.2464 583.8409,-324.4038"/>
<polygon fill="#000000" stroke="#000000" points="580.4983,-323.3298 579.9344,-333.9096 586.9729,-325.9906 580.4983,-323.3298"/>
</g>
<!-- Mégel 2017 ToPS -->
<g id="node14" class="node">
<title>Mégel 2017 ToPS</title>
<path fill="none" stroke="#000000" d="M388.5,-36C388.5,-36 298.5,-36 298.5,-36 292.5,-36 286.5,-30 286.5,-24 286.5,-24 286.5,-12 286.5,-12 286.5,-6 292.5,0 298.5,0 298.5,0 388.5,0 388.5,0 394.5,0 400.5,-6 400.5,-12 400.5,-12 400.5,-24 400.5,-24 400.5,-30 394.5,-36 388.5,-36"/>
<text text-anchor="middle" x="343.5" y="-14.3" font-family="Times,serif" font-size="14.00" fill="#000000">Mégel 2017 ToPS</text>
</g>
<!-- Mégel 2017 ToPS&#45;&gt;Mégel 2015 PTech -->
<g id="edge11" class="edge">
<title>Mégel 2017 ToPS&#45;&gt;Mégel 2015 PTech</title>
<path fill="none" stroke="#000000" stroke-dasharray="1,5" d="M286.4605,-32.4431C273.8415,-37.6628 261.3208,-44.6648 251.5,-54 244.8209,-60.3489 239.9334,-68.9967 236.4269,-77.3674"/>
<polygon fill="#000000" stroke="#000000" points="233.0835,-76.3187 232.9204,-86.9123 239.6542,-78.7326 233.0835,-76.3187"/>
<text text-anchor="middle" x="277" y="-57.8" font-family="Times,serif" font-size="14.00" fill="#000000">builds on</text>
</g>
<!-- Mégel 2017 ToPS&#45;&gt;Li Z. 2016 ToPS -->
<g id="edge8" class="edge">
<title>Mégel 2017 ToPS&#45;&gt;Li Z. 2016 ToPS</title>
<path fill="none" stroke="#000000" d="M335.7897,-36.1769C321.4219,-73.2189 295.4625,-158.3004 335.5,-210 360.1574,-241.8396 467.706,-261.6294 538.5566,-271.4569"/>
<polygon fill="#000000" stroke="#000000" points="538.3502,-274.9608 548.7295,-272.8348 539.2898,-268.0242 538.3502,-274.9608"/>
</g>
<!-- Li Z. 2015 TRep -->
<g id="node15" class="node">
<title>Li Z. 2015 TRep</title>
<path fill="none" stroke="#000000" d="M562,-210C562,-210 479,-210 479,-210 473,-210 467,-204 467,-198 467,-198 467,-186 467,-186 467,-180 473,-174 479,-174 479,-174 562,-174 562,-174 568,-174 574,-180 574,-186 574,-186 574,-198 574,-198 574,-204 568,-210 562,-210"/>
<text text-anchor="middle" x="520.5" y="-188.3" font-family="Times,serif" font-size="14.00" fill="#000000">Li Z. 2015 TRep</text>
</g>
<!-- Mégel 2017 ToPS&#45;&gt;Li Z. 2015 TRep -->
<g id="edge9" class="edge">
<title>Mégel 2017 ToPS&#45;&gt;Li Z. 2015 TRep</title>
<path fill="none" stroke="#000000" d="M387.6765,-36.126C412.2511,-47.869 442.1008,-65.0702 463.5,-87 485.2042,-109.2424 501.0276,-141.4157 510.4192,-164.2766"/>
<polygon fill="#000000" stroke="#000000" points="507.2334,-165.7382 514.1643,-173.7515 513.7433,-163.165 507.2334,-165.7382"/>
</g>
<!-- Duan 2016 TRep -->
<g id="node16" class="node">
<title>Duan 2016 TRep</title>
<path fill="none" stroke="#000000" d="M442.5,-123C442.5,-123 356.5,-123 356.5,-123 350.5,-123 344.5,-117 344.5,-111 344.5,-111 344.5,-99 344.5,-99 344.5,-93 350.5,-87 356.5,-87 356.5,-87 442.5,-87 442.5,-87 448.5,-87 454.5,-93 454.5,-99 454.5,-99 454.5,-111 454.5,-111 454.5,-117 448.5,-123 442.5,-123"/>
<text text-anchor="middle" x="399.5" y="-101.3" font-family="Times,serif" font-size="14.00" fill="#000000">Duan 2016 TRep</text>
</g>
<!-- Mégel 2017 ToPS&#45;&gt;Duan 2016 TRep -->
<g id="edge10" class="edge">
<title>Mégel 2017 ToPS&#45;&gt;Duan 2016 TRep</title>
<path fill="none" stroke="#000000" d="M355.1032,-36.0265C362.9872,-48.2748 373.5491,-64.6835 382.3933,-78.4234"/>
<polygon fill="#000000" stroke="#000000" points="379.5561,-80.4824 387.9116,-86.9966 385.4422,-76.6936 379.5561,-80.4824"/>
</g>
<!-- Li Z. 2015 TRep&#45;&gt;Li Z. 2016 ToPS -->
<g id="edge14" class="edge">
<title>Li Z. 2015 TRep&#45;&gt;Li Z. 2016 ToPS</title>
<path fill="none" stroke="#000000" d="M526.6757,-210.4562C530.8176,-220.8583 537.0676,-233.6083 545.5,-243 549.4073,-247.3518 553.9609,-251.3763 558.7596,-255.0355"/>
<polygon fill="#000000" stroke="#000000" points="556.8063,-257.9408 566.9962,-260.842 560.8397,-252.2195 556.8063,-257.9408"/>
<text text-anchor="middle" x="567" y="-231.8" font-family="Times,serif" font-size="14.00" fill="#000000">extends</text>
</g>
<!-- Duan 2016 TRep&#45;&gt;Li Z. 2015 TRep -->
<g id="edge12" class="edge">
<title>Duan 2016 TRep&#45;&gt;Li Z. 2015 TRep</title>
<path fill="none" stroke="#000000" d="M424.5713,-123.0265C442.742,-136.0914 467.4962,-153.8898 487.3068,-168.1338"/>
<polygon fill="#000000" stroke="#000000" points="485.2984,-171.0006 495.4608,-173.9966 489.3849,-165.3171 485.2984,-171.0006"/>
</g>
<!-- Jabr 2014 ToPS -->
<g id="node17" class="node">
<title>Jabr 2014 ToPS</title>
<path fill="none" stroke="#000000" d="M436.5,-210C436.5,-210 356.5,-210 356.5,-210 350.5,-210 344.5,-204 344.5,-198 344.5,-198 344.5,-186 344.5,-186 344.5,-180 350.5,-174 356.5,-174 356.5,-174 436.5,-174 436.5,-174 442.5,-174 448.5,-180 448.5,-186 448.5,-186 448.5,-198 448.5,-198 448.5,-204 442.5,-210 436.5,-210"/>
<text text-anchor="middle" x="396.5" y="-188.3" font-family="Times,serif" font-size="14.00" fill="#000000">Jabr 2014 ToPS</text>
</g>
<!-- Duan 2016 TRep&#45;&gt;Jabr 2014 ToPS -->
<g id="edge13" class="edge">
<title>Duan 2016 TRep&#45;&gt;Jabr 2014 ToPS</title>
<path fill="none" stroke="#000000" d="M398.8784,-123.0265C398.4721,-134.8082 397.9331,-150.4393 397.471,-163.8419"/>
<polygon fill="#000000" stroke="#000000" points="393.9676,-163.8819 397.1208,-173.9966 400.9634,-164.1232 393.9676,-163.8819"/>
</g>
<!-- Li Z. 2015 AE -->
<g id="node18" class="node">
<title>Li Z. 2015 AE</title>
<path fill="none" stroke="#000000" d="M714.5,-210C714.5,-210 642.5,-210 642.5,-210 636.5,-210 630.5,-204 630.5,-198 630.5,-198 630.5,-186 630.5,-186 630.5,-180 636.5,-174 642.5,-174 642.5,-174 714.5,-174 714.5,-174 720.5,-174 726.5,-180 726.5,-186 726.5,-186 726.5,-198 726.5,-198 726.5,-204 720.5,-210 714.5,-210"/>
<text text-anchor="middle" x="678.5" y="-188.3" font-family="Times,serif" font-size="14.00" fill="#000000">Li Z. 2015 AE</text>
</g>
<!-- Li Z. 2015 AE&#45;&gt;Li Z. 2016 ToPS -->
<g id="edge15" class="edge">
<title>Li Z. 2015 AE&#45;&gt;Li Z. 2016 ToPS</title>
<path fill="none" stroke="#000000" d="M662.7528,-210.0265C651.8492,-222.5081 637.1716,-239.3101 625.033,-253.2056"/>
<polygon fill="#000000" stroke="#000000" points="622.1701,-251.1629 618.2271,-260.9966 627.4419,-255.7681 622.1701,-251.1629"/>
</g>
<!-- Li Z. 2018 CJPES -->
<g id="node19" class="node">
<title>Li Z. 2018 CJPES</title>
<path fill="none" stroke="#000000" d="M647.5,-123C647.5,-123 557.5,-123 557.5,-123 551.5,-123 545.5,-117 545.5,-111 545.5,-111 545.5,-99 545.5,-99 545.5,-93 551.5,-87 557.5,-87 557.5,-87 647.5,-87 647.5,-87 653.5,-87 659.5,-93 659.5,-99 659.5,-99 659.5,-111 659.5,-111 659.5,-117 653.5,-123 647.5,-123"/>
<text text-anchor="middle" x="602.5" y="-101.3" font-family="Times,serif" font-size="14.00" fill="#000000">Li Z. 2018 CJPES</text>
</g>
<!-- Li Z. 2018 CJPES&#45;&gt;Li Z. 2016 ToPS -->
<g id="edge16" class="edge">
<title>Li Z. 2018 CJPES&#45;&gt;Li Z. 2016 ToPS</title>
<path fill="none" stroke="#000000" d="M602.5,-123.2922C602.5,-153.6564 602.5,-214.6774 602.5,-250.6536"/>
<polygon fill="#000000" stroke="#000000" points="599.0001,-250.9529 602.5,-260.9529 606.0001,-250.9529 599.0001,-250.9529"/>
</g>
<!-- Li Z. 2018 CJPES&#45;&gt;Li Z. 2015 TRep -->
<g id="edge18" class="edge">
<title>Li Z. 2018 CJPES&#45;&gt;Li Z. 2015 TRep</title>
<path fill="none" stroke="#000000" stroke-dasharray="1,5" d="M569.9475,-123.0412C562.3421,-128.2021 554.6704,-134.2754 548.5,-141 542.2173,-147.8471 536.834,-156.3595 532.5152,-164.456"/>
<polygon fill="#000000" stroke="#000000" points="529.2645,-163.1325 527.9441,-173.6448 535.5318,-166.2504 529.2645,-163.1325"/>
<text text-anchor="middle" x="568.5" y="-144.8" font-family="Times,serif" font-size="14.00" fill="#000000">similar</text>
</g>
<!-- Li Z. 2018 CJPES&#45;&gt;Li Z. 2015 AE -->
<g id="edge17" class="edge">
<title>Li Z. 2018 CJPES&#45;&gt;Li Z. 2015 AE</title>
<path fill="none" stroke="#000000" d="M618.2472,-123.0265C629.1508,-135.5081 643.8284,-152.3101 655.967,-166.2056"/>
<polygon fill="#000000" stroke="#000000" points="653.5581,-168.7681 662.7729,-173.9966 658.8299,-164.1629 653.5581,-168.7681"/>
</g>
<!-- Arroyo 2020 ToPS -->
<g id="node20" class="node">
<title>Arroyo 2020 ToPS</title>
<path fill="none" stroke="#000000" d="M854.5,-210C854.5,-210 756.5,-210 756.5,-210 750.5,-210 744.5,-204 744.5,-198 744.5,-198 744.5,-186 744.5,-186 744.5,-180 750.5,-174 756.5,-174 756.5,-174 854.5,-174 854.5,-174 860.5,-174 866.5,-180 866.5,-186 866.5,-186 866.5,-198 866.5,-198 866.5,-204 860.5,-210 854.5,-210"/>
<text text-anchor="middle" x="805.5" y="-188.3" font-family="Times,serif" font-size="14.00" fill="#000000">Arroyo 2020 ToPS</text>
</g>
<!-- Arroyo 2020 ToPS&#45;&gt;Li Z. 2016 ToPS -->
<g id="edge19" class="edge">
<title>Arroyo 2020 ToPS&#45;&gt;Li Z. 2016 ToPS</title>
<path fill="none" stroke="#000000" d="M749.3793,-210.0709C734.0189,-215.4335 717.4797,-221.5972 702.5,-228 682.967,-236.349 661.9386,-246.8341 644.2293,-256.1227"/>
<polygon fill="#000000" stroke="#000000" points="642.4958,-253.0801 635.2966,-260.8533 645.7719,-259.2662 642.4958,-253.0801"/>
</g>
<!-- Arroyo 2020 ToPS&#45;&gt;Yang P. 2014 ToSG -->
<g id="edge20" class="edge">
<title>Arroyo 2020 ToPS&#45;&gt;Yang P. 2014 ToSG</title>
<path fill="none" stroke="#000000" d="M780.7597,-210.1175C765.3918,-222.6924 746.5285,-240.7746 735.5,-261 724.9229,-280.3975 720.2248,-305.0712 718.1427,-323.8315"/>
<polygon fill="#000000" stroke="#000000" points="714.6529,-323.5609 717.2144,-333.8414 721.623,-324.2074 714.6529,-323.5609"/>
</g>
<!-- Wen Y. 2016 ToPS -->
<g id="node21" class="node">
<title>Wen Y. 2016 ToPS</title>
<path fill="none" stroke="#000000" d="M854.5,-297C854.5,-297 756.5,-297 756.5,-297 750.5,-297 744.5,-291 744.5,-285 744.5,-285 744.5,-273 744.5,-273 744.5,-267 750.5,-261 756.5,-261 756.5,-261 854.5,-261 854.5,-261 860.5,-261 866.5,-267 866.5,-273 866.5,-273 866.5,-285 866.5,-285 866.5,-291 860.5,-297 854.5,-297"/>
<text text-anchor="middle" x="805.5" y="-275.3" font-family="Times,serif" font-size="14.00" fill="#000000">Wen Y. 2016 ToPS</text>
</g>
<!-- Arroyo 2020 ToPS&#45;&gt;Wen Y. 2016 ToPS -->
<g id="edge21" class="edge">
<title>Arroyo 2020 ToPS&#45;&gt;Wen Y. 2016 ToPS</title>
<path fill="none" stroke="#ff0000" d="M805.5,-210.0265C805.5,-221.8082 805.5,-237.4393 805.5,-250.8419"/>
<polygon fill="#ff0000" stroke="#ff0000" points="802.0001,-250.9966 805.5,-260.9966 809.0001,-250.9967 802.0001,-250.9966"/>
<text text-anchor="middle" x="822.5" y="-231.8" font-family="Times,serif" font-size="14.00" fill="#000000">refute</text>
</g>
<!-- Zhao B. 2018 ToPS -->
<g id="node22" class="node">
<title>Zhao B. 2018 ToPS</title>
<path fill="none" stroke="#000000" d="M998,-297C998,-297 897,-297 897,-297 891,-297 885,-291 885,-285 885,-285 885,-273 885,-273 885,-267 891,-261 897,-261 897,-261 998,-261 998,-261 1004,-261 1010,-267 1010,-273 1010,-273 1010,-285 1010,-285 1010,-291 1004,-297 998,-297"/>
<text text-anchor="middle" x="947.5" y="-275.3" font-family="Times,serif" font-size="14.00" fill="#000000">Zhao B. 2018 ToPS</text>
</g>
<!-- Arroyo 2020 ToPS&#45;&gt;Zhao B. 2018 ToPS -->
<g id="edge22" class="edge">
<title>Arroyo 2020 ToPS&#45;&gt;Zhao B. 2018 ToPS</title>
<path fill="none" stroke="#ff0000" d="M834.9225,-210.0265C856.5325,-223.2664 886.0767,-241.3674 909.477,-255.7042"/>
<polygon fill="#ff0000" stroke="#ff0000" points="907.7598,-258.7568 918.1152,-260.9966 911.4168,-252.788 907.7598,-258.7568"/>
<text text-anchor="middle" x="902.5" y="-231.8" font-family="Times,serif" font-size="14.00" fill="#000000">refute</text>
</g>
<!-- Pinto 2016 ToSE -->
<g id="node23" class="node">
<title>Pinto 2016 ToSE</title>
<path fill="none" stroke="#000000" d="M1375,-36C1375,-36 1288,-36 1288,-36 1282,-36 1276,-30 1276,-24 1276,-24 1276,-12 1276,-12 1276,-6 1282,0 1288,0 1288,0 1375,0 1375,0 1381,0 1387,-6 1387,-12 1387,-12 1387,-24 1387,-24 1387,-30 1381,-36 1375,-36"/>
<text text-anchor="middle" x="1331.5" y="-14.3" font-family="Times,serif" font-size="14.00" fill="#000000">Pinto 2016 ToSE</text>
</g>
<!-- Murgovski 2012 ECoSM -->
<g id="node24" class="node">
<title>Murgovski 2012 ECoSM</title>
<path fill="none" stroke="#000000" d="M1395.5,-123C1395.5,-123 1267.5,-123 1267.5,-123 1261.5,-123 1255.5,-117 1255.5,-111 1255.5,-111 1255.5,-99 1255.5,-99 1255.5,-93 1261.5,-87 1267.5,-87 1267.5,-87 1395.5,-87 1395.5,-87 1401.5,-87 1407.5,-93 1407.5,-99 1407.5,-99 1407.5,-111 1407.5,-111 1407.5,-117 1401.5,-123 1395.5,-123"/>
<text text-anchor="middle" x="1331.5" y="-101.3" font-family="Times,serif" font-size="14.00" fill="#000000">Murgovski 2012 ECoSM</text>
</g>
<!-- Pinto 2016 ToSE&#45;&gt;Murgovski 2012 ECoSM -->
<g id="edge23" class="edge">
<title>Pinto 2016 ToSE&#45;&gt;Murgovski 2012 ECoSM</title>
<path fill="none" stroke="#000000" d="M1331.5,-36.0265C1331.5,-47.8082 1331.5,-63.4393 1331.5,-76.8419"/>
<polygon fill="#000000" stroke="#000000" points="1328.0001,-76.9966 1331.5,-86.9966 1335.0001,-76.9967 1328.0001,-76.9966"/>
</g>
<!-- Murgovski 2012 Mech -->
<g id="node25" class="node">
<title>Murgovski 2012 Mech</title>
<path fill="none" stroke="#000000" d="M1490.5,-210C1490.5,-210 1374.5,-210 1374.5,-210 1368.5,-210 1362.5,-204 1362.5,-198 1362.5,-198 1362.5,-186 1362.5,-186 1362.5,-180 1368.5,-174 1374.5,-174 1374.5,-174 1490.5,-174 1490.5,-174 1496.5,-174 1502.5,-180 1502.5,-186 1502.5,-186 1502.5,-198 1502.5,-198 1502.5,-204 1496.5,-210 1490.5,-210"/>
<text text-anchor="middle" x="1432.5" y="-188.3" font-family="Times,serif" font-size="14.00" fill="#000000">Murgovski 2012 Mech</text>
</g>
<!-- Murgovski 2012 ECoSM&#45;&gt;Murgovski 2012 Mech -->
<g id="edge24" class="edge">
<title>Murgovski 2012 ECoSM&#45;&gt;Murgovski 2012 Mech</title>
<path fill="none" stroke="#000000" d="M1352.4273,-123.0265C1367.3238,-135.8581 1387.5209,-153.2557 1403.9035,-167.3674"/>
<polygon fill="#000000" stroke="#000000" points="1401.7386,-170.122 1411.5995,-173.9966 1406.3071,-164.8183 1401.7386,-170.122"/>
</g>
<!-- Wu 2017 JoPS -->
<g id="node26" class="node">
<title>Wu 2017 JoPS</title>
<path fill="none" stroke="#000000" d="M1511,-123C1511,-123 1438,-123 1438,-123 1432,-123 1426,-117 1426,-111 1426,-111 1426,-99 1426,-99 1426,-93 1432,-87 1438,-87 1438,-87 1511,-87 1511,-87 1517,-87 1523,-93 1523,-99 1523,-99 1523,-111 1523,-111 1523,-117 1517,-123 1511,-123"/>
<text text-anchor="middle" x="1474.5" y="-101.3" font-family="Times,serif" font-size="14.00" fill="#000000">Wu 2017 JoPS</text>
</g>
<!-- Wu 2017 JoPS&#45;&gt;Murgovski 2012 Mech -->
<g id="edge25" class="edge">
<title>Wu 2017 JoPS&#45;&gt;Murgovski 2012 Mech</title>
<path fill="none" stroke="#000000" d="M1465.7976,-123.0265C1459.9972,-135.0415 1452.2642,-151.0599 1445.7105,-164.6354"/>
<polygon fill="#000000" stroke="#000000" points="1442.3869,-163.4695 1441.1913,-173.9966 1448.6908,-166.5128 1442.3869,-163.4695"/>
</g>
</g>
</svg>
